<svg aria-hidden="true" style="position: absolute; width: 0; height: 0; overflow: hidden;" version="1.1" xmlns="http://www.w3.org/2000/svg" xmlns:xlink="http://www.w3.org/1999/xlink">
<defs>
<symbol  id="icon-map" viewBox="0 0 32 32">
<path d="M21.040 29.44l-10.080-3.562-6.649 2.595c-0.43 0.162-0.829 0.115-1.198-0.141s-0.553-0.615-0.553-1.077v-20.748c0-0.302 0.073-0.578 0.218-0.829 0.146-0.249 0.357-0.422 0.635-0.521l7.547-2.597 10.080 3.562 6.649-2.595c0.43-0.162 0.829-0.131 1.198 0.092s0.553 0.555 0.553 0.996v21.009c0 0.325-0.089 0.606-0.267 0.845-0.177 0.24-0.416 0.408-0.716 0.506l-7.417 2.466zM20.2 27.37v-19.847l-8.4-2.96v19.847l8.4 2.96zM21.88 27.37l5.88-1.956v-20.101l-5.88 2.212v19.845zM4.24 26.687l5.88-2.276v-19.847l-5.88 2.022v20.101z"></path>
</symbol>
<symbol id="icon-equipment" viewBox="0 0 36 32">
<path stroke-linejoin="miter" stroke-linecap="butt" stroke-miterlimit="4" stroke-width="0.7111" d="M17.549 4.85l0.229 0.193 0.229-0.193c2.086-1.76 6.771-4.494 15.771-4.494 0.377 0 0.739 0.15 1.006 0.417s0.417 0.628 0.417 1.006v23.111c0 0.377-0.15 0.739-0.417 1.006s-0.628 0.417-1.006 0.417c-11.192 0-14.686 4.519-14.826 4.714-0.133 0.186-0.309 0.339-0.512 0.444s-0.428 0.161-0.657 0.163h-0.024c-0.227-0.002-0.45-0.058-0.65-0.164s-0.374-0.258-0.505-0.444l0-0-0.006-0.008c-0.126-0.169-2.653-3.439-10.203-4.423l-0.001-0c-1.531-0.194-3.074-0.288-4.617-0.283-0.377-0-0.739-0.15-1.005-0.417s-0.417-0.628-0.417-1.006v-23.111c0-0.377 0.15-0.739 0.417-1.006s0.628-0.417 1.006-0.417c9 0 13.684 2.734 15.771 4.494zM3.2 23.147v0.341l0.34 0.015c1.117 0.047 2.196 0.138 3.223 0.272v0l0.009 0.001c3.191 0.335 6.275 1.342 9.048 2.955l0.534 0.311v-19.421l-0.101-0.104c-1.018-1.039-4.536-3.902-12.682-4.275l-0.372-0.017v19.923zM32.001 23.502l0.355-0.001v-20.277l-0.372 0.017c-8.117 0.372-11.642 3.217-12.682 4.279l-0.102 0.104v19.41l0.53-0.298c3.747-2.109 7.972-3.222 12.271-3.233z"></path>
</symbol>
<symbol id="icon-experience" viewBox="0 0 32 32">
<path stroke-linejoin="miter" stroke-linecap="butt" stroke-miterlimit="4" stroke-width="0.64" d="M18.88 16c0 1.591-1.289 2.88-2.88 2.88s-2.88-1.289-2.88-2.88c0-1.591 1.289-2.88 2.88-2.88s2.88 1.289 2.88 2.88z"></path>
<path stroke-linejoin="miter" stroke-linecap="butt" stroke-miterlimit="4" stroke-width="0.64" d="M28.371 14.44l0.036 0.28h3.274v2.56h-3.274l-0.036 0.28c-0.35 2.745-1.602 5.296-3.558 7.253s-4.508 3.208-7.253 3.558l-0.28 0.036v3.274h-2.56v-3.273l-0.28-0.036c-2.745-0.35-5.297-1.601-7.253-3.558s-3.208-4.508-3.558-7.253l-0.036-0.28h-3.273v-2.56h3.273l0.036-0.28c0.35-2.745 1.601-5.297 3.558-7.253s4.508-3.208 7.253-3.558l0.28-0.036v-3.273h2.56v3.273l0.28 0.036c2.745 0.35 5.296 1.602 7.253 3.559s3.208 4.508 3.558 7.253zM17.28 25.456v0.379l0.374-0.064c2.027-0.346 3.897-1.313 5.351-2.767s2.421-3.324 2.767-5.351l0.064-0.374h-3.115v-2.56h3.115l-0.064-0.374c-0.346-2.027-1.313-3.897-2.767-5.351s-3.324-2.421-5.351-2.767l-0.374-0.064v3.115h-2.56v-3.115l-0.374 0.064c-2.027 0.346-3.897 1.313-5.351 2.767s-2.421 3.324-2.767 5.351l-0.064 0.374h3.115v2.56h-3.115l0.064 0.374c0.346 2.027 1.313 3.897 2.767 5.351s3.324 2.421 5.351 2.767l0.374 0.064v-3.115h2.56v2.736z"></path>
</symbol>
<symbol id="icon-guides" viewBox="0 0 32 32">
<path stroke-linejoin="miter" stroke-linecap="butt" stroke-miterlimit="4" stroke-width="0.64" d="M24.923 19.928l5.722 5.722c0.662 0.662 1.035 1.561 1.035 2.498s-0.372 1.835-1.035 2.498c-0.662 0.662-1.561 1.035-2.498 1.035s-1.835-0.372-2.498-1.035l-5.722-5.722c-0.118-0.118-0.212-0.259-0.277-0.414s-0.097-0.321-0.097-0.488c0-0.168 0.033-0.333 0.097-0.488s0.158-0.295 0.277-0.414l0.694-0.694-2.659-2.659-0.222 0.166c-2.205 1.651-4.954 2.405-7.692 2.11s-5.264-1.615-7.068-3.697c-1.804-2.082-2.752-4.769-2.654-7.522s1.236-5.366 3.183-7.314c1.948-1.948 4.561-3.085 7.314-3.183s5.44 0.85 7.522 2.654c2.082 1.804 3.403 4.329 3.697 7.068s-0.46 5.487-2.11 7.692l-0.166 0.222 2.659 2.659 0.694-0.694c0.118-0.118 0.259-0.212 0.414-0.277s0.321-0.097 0.488-0.097c0.168 0 0.333 0.033 0.488 0.097s0.295 0.158 0.414 0.277zM2.957 11.256v0c0.003 2.2 0.878 4.309 2.433 5.865s3.665 2.431 5.865 2.433h0c1.641 0 3.246-0.487 4.61-1.399s2.428-2.208 3.056-3.724 0.792-3.185 0.472-4.795c-0.32-1.61-1.111-3.088-2.271-4.249s-2.639-1.951-4.249-2.271c-1.61-0.32-3.278-0.156-4.795 0.472s-2.812 1.692-3.724 3.056c-0.912 1.365-1.399 2.969-1.399 4.61zM28.841 28.842l0.001-0.001c0.184-0.184 0.287-0.434 0.287-0.694s-0.103-0.51-0.287-0.694l-4.82-4.82-1.388 1.388 4.821 4.821c0.184 0.183 0.433 0.286 0.693 0.286s0.509-0.103 0.693-0.286z"></path>
</symbol>
<symbol id="icon-logo" viewBox="0 0 56 32">
<path stroke-linejoin="miter" stroke-linecap="butt" stroke-miterlimit="4" stroke-width="0.5614" d="M12.368 15.058l-11.807 14.496 10.39-6.079 3.306 3.273-0.944-5.611 18.418 10.288-7.084-10.288 11.334 2.338-6.139-5.144v-9.353l13.223 16.835v-8.885l11.807 8.885-11.807-14.029-2.834 3.273-10.39-14.496-11.334 16.367-6.139-1.871z"></path>
</symbol>
<symbol id="icon-menu-burger" viewBox="0 0 60 32">
<path stroke-linejoin="miter" stroke-linecap="butt" stroke-miterlimit="4" stroke-width="4.1739" d="M59.826 2.087h-59.826"></path>
<path stroke-linejoin="miter" stroke-linecap="butt" stroke-miterlimit="4" stroke-width="4.1739" d="M59.826 16h-59.826"></path>
<path stroke-linejoin="miter" stroke-linecap="butt" stroke-miterlimit="4" stroke-width="4.1739" d="M59.826 29.913h-59.826"></path>
</symbol>
<symbol id="icon-star-default" viewBox="0 0 32 32">
<path d="M16 0l3.592 11.056h11.625l-9.405 6.833 3.592 11.056-9.405-6.833-9.405 6.833 3.592-11.056-9.405-6.833h11.625l3.592-11.056z"></path>
</symbol>
<symbol id="icon-star" viewBox="0 0 34 32">
<path stroke-linejoin="miter" stroke-linecap="butt" stroke-miterlimit="4" stroke-width="1.6" d="M16.533 2.589l3.011 9.267h9.744l-7.883 5.727 3.011 9.267-7.883-5.727-7.883 5.727 3.011-9.267-7.883-5.727h9.744l3.011-9.267z"></path>
</symbol>
</defs>
</svg>
